<svg version="1.1" xmlns="http://www.w3.org/2000/svg" viewBox="-2275.414358786385 -1518.2078887939454 20392.533012274547 2303.231817626953"><desc>Created with Snap</desc><defs></defs><g><g transform="matrix(18.7857,0,0,18.7857,-2062.1427,-1304.9362)"><g><path d="M78.4,66.5c-5.5,4.8-9.9,15.2-9.9,15.2s-6.9-11.4-12.9-15.3c-9.5-6.1-13.6-6.2-13.6-6.2V65c0,0,7.8,1.2,11.7,4.6   c8.2,7.1,14.8,18.5,14.8,18.5S74.4,75,80.1,70.5C88.1,64.3,95,65,95,65v-4.8C95,60.1,85.1,60.7,78.4,66.5z" fill="#e4473e" style=""></path><path d="M42,80c-6.4-3.6-17.8-4.3-17.8-4.3s8.7-10.1,10.5-17C37.5,47.9,36.2,44,36.2,44l-4.6,1.6c0,0,1.3,7.7-0.6,12.4   c-4.1,9.9-13,19.8-13,19.8s14.6,1.3,20.7,5.1c8.6,5.4,10.2,12,10.2,12l4.6-1.6C53.5,93.4,49.7,84.4,42,80z" fill="#e4473e" style=""></path><path d="M35.3,36.8c11.3-0.9,14.6-3.4,14.6-3.4l-3-3.8c0,0-6.9,3.7-12.1,3.4c-10.9-0.6-23.3-5.6-23.3-5.6s3.5,14,1.8,20.9   C10.9,58.2,5,61.8,5,61.8l3,3.8c0,0,7.5-6.5,9.1-15.1c1.3-7.1-1.7-18-1.7-18S28,37.4,35.3,36.8z" fill="#e4473e" style=""></path><path d="M37.4,17.8c7.3-1.1,16.7-7.4,16.7-7.4s-0.6,13.2,2.4,19.8c4.6,10.2,8,12.5,8,12.5l2.7-4c0,0-5.9-5.2-7.3-10.2   C56.9,18.2,57.7,5,57.7,5s-12.3,7.8-19.5,8.5c-10.2,1-15.6-3.3-15.6-3.3l-2.7,4.1C19.9,14.2,28.6,19.1,37.4,17.8z" fill="#e4473e" style=""></path><path d="M65,60.5c0,0,3.1-7.2,7.4-10.1c9-6.1,21.9-9.7,21.9-9.7s-11.5-8.9-14.5-15.4c-4.2-9.1-1.9-15.6-1.9-15.6l-4.8-1.2   c0,0-1.9,9.6,2.2,17.4c3.4,6.4,12.5,13.2,12.5,13.2S75,42.9,69.6,47.8c-8.3,7.6-9.4,11.5-9.4,11.5L65,60.5z" fill="#e4473e" style=""></path></g><desc>Created with Snap</desc><defs></defs></g><g><g transform="matrix(0.512,0,0,-0.512,0,0)"><path d="M955 1301L908 1209Q899 1194 889 1186Q879 1179 863 1179Q846 1179 823 1196Q801 1213 766 1233Q732 1254 683 1271Q635 1288 566 1288Q501 1288 451 1270Q401 1253 367 1223Q334 1193 317 1152Q300 1112 300 1065Q300 1005 329 965Q359 926 407 898Q456 870 517 849Q579 829 643 807Q708 785 769 757Q831 730 879 688Q928 646 957 585Q987 524 987 435Q987 341 955 258Q923 176 861 115Q800 54 710 19Q621 -16 507 -16Q368 -16 253 34Q139 85 58 171L114 263Q122 274 133 281Q145 289 159 289Q180 289 207 266Q234 244 274 217Q315 190 372 167Q430 145 513 145Q582 145 636 164Q690 183 727 217Q765 252 785 300Q805 348 805 407Q805 472 775 513Q746 555 698 583Q650 611 588 630Q527 650 462 670Q398 691 336 718Q275 745 227 788Q179 831 149 895Q120 960 120 1055Q120 1131 149 1202Q179 1273 235 1328Q291 1383 373 1416Q456 1449 563 1449Q683 1449 782 1411Q881 1373 955 1301ZM2396 1433L2396 0L2201 0L2201 652L1429 652L1429 0L1234 0L1234 1433L1429 1433L1429 794L2201 794L2201 1433L2396 1433ZM2976 1433L2976 0L2782 0L2782 1433L2976 1433ZM3460 1433L3460 1433Q3486 1433 3498 1426Q3511 1420 3527 1400L4357 320Q4354 346 4353 370Q4352 395 4352 418L4352 1433L4522 1433L4522 0L4424 0Q4401 0 4385 8Q4370 16 4355 35L3526 1114Q3528 1089 3529 1065Q3530 1041 3530 1021L3530 0L3360 0L3360 1433L3460 1433ZM4872 1433L5755 1433L5755 1275L5067 1275L5067 799L5624 799L5624 647L5067 647L5067 158L5755 158L5755 0L4872 0L4872 1433ZM6346 524L6346 675L6840 675L6840 524L6346 524ZM6968 1433L8090 1433L8090 1270L7627 1270L7627 0L7433 0L7433 1270L6968 1270L6968 1433ZM8294 1433L9177 1433L9177 1275L8489 1275L8489 799L9046 799L9046 647L8489 647L8489 158L9177 158L9177 0L8294 0L8294 1433ZM10466 296Q10482 296 10495 283L10571 200Q10483 98 10357 41Q10232 -16 10055 -16Q9900 -16 9774 37Q9648 91 9559 187Q9470 284 9421 419Q9372 554 9372 716Q9372 878 9424 1013Q9477 1148 9572 1245Q9667 1342 9799 1395Q9932 1449 10092 1449Q10250 1449 10364 1400Q10479 1351 10568 1267L10505 1178Q10498 1168 10489 1161Q10480 1155 10463 1155Q10450 1155 10435 1164Q10421 1174 10401 1188Q10381 1202 10354 1218Q10327 1234 10290 1248Q10253 1262 10204 1271Q10155 1281 10091 1281Q9976 1281 9880 1241Q9785 1202 9716 1129Q9647 1056 9608 951Q9570 846 9570 716Q9570 582 9608 477Q9647 372 9713 299Q9780 227 9871 189Q9962 151 10067 151Q10131 151 10182 158Q10233 166 10276 182Q10320 198 10357 222Q10395 247 10433 281Q10450 296 10466 296ZM11988 1433L11988 0L11793 0L11793 652L11021 652L11021 0L10826 0L10826 1433L11021 1433L11021 794L11793 794L11793 1433L11988 1433ZM13505 1301L13458 1209Q13449 1194 13439 1186Q13429 1179 13413 1179Q13396 1179 13373 1196Q13351 1213 13316 1233Q13282 1254 13233 1271Q13185 1288 13116 1288Q13051 1288 13001 1270Q12951 1253 12917 1223Q12884 1193 12867 1152Q12850 1112 12850 1065Q12850 1005 12879 965Q12909 926 12957 898Q13006 870 13067 849Q13129 829 13193 807Q13258 785 13319 757Q13381 730 13429 688Q13478 646 13507 585Q13537 524 13537 435Q13537 341 13505 258Q13473 176 13411 115Q13350 54 13260 19Q13171 -16 13057 -16Q12918 -16 12803 34Q12689 85 12608 171L12664 263Q12672 274 12683 281Q12695 289 12709 289Q12730 289 12757 266Q12784 244 12824 217Q12865 190 12922 167Q12980 145 13063 145Q13132 145 13186 164Q13240 183 13277 217Q13315 252 13335 300Q13355 348 13355 407Q13355 472 13325 513Q13296 555 13248 583Q13200 611 13138 630Q13077 650 13012 670Q12948 691 12886 718Q12825 745 12777 788Q12729 831 12699 895Q12670 960 12670 1055Q12670 1131 12699 1202Q12729 1273 12785 1328Q12841 1383 12923 1416Q13006 1449 13113 1449Q13233 1449 13332 1411Q13431 1373 13505 1301ZM15115 716Q15115 555 15064 420Q15013 286 14920 189Q14827 92 14696 38Q14566 -15 14408 -15Q14250 -15 14120 38Q13990 92 13897 189Q13804 286 13753 420Q13702 555 13702 716Q13702 877 13753 1011Q13804 1146 13897 1243Q13990 1341 14120 1395Q14250 1449 14408 1449Q14566 1449 14696 1395Q14827 1341 14920 1243Q15013 1146 15064 1011Q15115 877 15115 716ZM14916 716Q14916 848 14880 953Q14844 1058 14778 1130Q14712 1203 14618 1242Q14524 1281 14408 1281Q14293 1281 14199 1242Q14105 1203 14038 1130Q13972 1058 13936 953Q13900 848 13900 716Q13900 584 13936 479Q13972 375 14038 302Q14105 230 14199 191Q14293 153 14408 153Q14524 153 14618 191Q14712 230 14778 302Q14844 375 14880 479Q14916 584 14916 716ZM15380 1433L16263 1433L16263 1275L15575 1275L15575 774L16163 774L16163 616L15575 616L15575 0L15380 0L15380 1433ZM16366 1433L17488 1433L17488 1270L17025 1270L17025 0L16831 0L16831 1270L16366 1270L16366 1433ZM17979 0L17532 1433L17693 1433Q17719 1433 17736 1420Q17753 1407 17759 1387L18055 391Q18063 364 18069 333Q18076 302 18082 268Q18089 302 18096 333Q18103 365 18112 391L18449 1387Q18455 1404 18472 1418Q18490 1433 18515 1433L18571 1433Q18597 1433 18613 1420Q18630 1407 18637 1387L18972 391Q18990 339 19004 272Q19010 305 19015 335Q19020 365 19028 391L19325 1387Q19330 1405 19347 1419Q19365 1433 19390 1433L19541 1433L19094 0L18920 0L18557 1093Q18546 1124 18537 1165Q18532 1145 18527 1126Q18523 1108 18518 1093L18153 0L17979 0ZM20336 1433L20909 0L20759 0Q20733 0 20717 13Q20701 26 20693 46L20559 392L19916 392L19782 46Q19775 28 19758 14Q19741 0 19716 0L19566 0L20139 1433L20336 1433ZM20195 1114L19970 532L20505 532L20280 1115Q20258 1169 20237 1250Q20226 1209 20215 1174Q20205 1140 20195 1114ZM21450 598L21303 598L21303 0L21110 0L21110 1433L21515 1433Q21651 1433 21750 1405Q21849 1378 21913 1326Q21978 1274 22009 1200Q22040 1127 22040 1036Q22040 960 22016 894Q21992 828 21946 775Q21901 723 21835 686Q21770 649 21687 630Q21723 609 21751 569L22169 0L21997 0Q21944 0 21919 41L21547 553Q21530 577 21510 587Q21490 598 21450 598ZM21303 1280L21303 739L21506 739Q21591 739 21655 759Q21720 780 21763 817Q21807 855 21829 907Q21851 959 21851 1022Q21851 1150 21766 1215Q21682 1280 21515 1280L21303 1280ZM22378 1433L23261 1433L23261 1275L22573 1275L22573 799L23130 799L23130 647L22573 647L22573 158L23261 158L23261 0L22378 0L22378 1433ZM24707 1301L24660 1209Q24651 1194 24641 1186Q24631 1179 24615 1179Q24598 1179 24575 1196Q24553 1213 24518 1233Q24484 1254 24435 1271Q24387 1288 24318 1288Q24253 1288 24203 1270Q24153 1253 24119 1223Q24086 1193 24069 1152Q24052 1112 24052 1065Q24052 1005 24081 965Q24111 926 24159 898Q24208 870 24269 849Q24331 829 24395 807Q24460 785 24521 757Q24583 730 24631 688Q24680 646 24709 585Q24739 524 24739 435Q24739 341 24707 258Q24675 176 24613 115Q24552 54 24462 19Q24373 -16 24259 -16Q24120 -16 24005 34Q23891 85 23810 171L23866 263Q23874 274 23885 281Q23897 289 23911 289Q23932 289 23959 266Q23986 244 24026 217Q24067 190 24124 167Q24182 145 24265 145Q24334 145 24388 164Q24442 183 24479 217Q24517 252 24537 300Q24557 348 24557 407Q24557 472 24527 513Q24498 555 24450 583Q24402 611 24340 630Q24279 650 24214 670Q24150 691 24088 718Q24027 745 23979 788Q23931 831 23901 895Q23872 960 23872 1055Q23872 1131 23901 1202Q23931 1273 23987 1328Q24043 1383 24125 1416Q24208 1449 24315 1449Q24435 1449 24534 1411Q24633 1373 24707 1301ZM26317 716Q26317 555 26266 420Q26215 286 26122 189Q26029 92 25898 38Q25768 -15 25610 -15Q25452 -15 25322 38Q25192 92 25099 189Q25006 286 24955 420Q24904 555 24904 716Q24904 877 24955 1011Q25006 1146 25099 1243Q25192 1341 25322 1395Q25452 1449 25610 1449Q25768 1449 25898 1395Q26029 1341 26122 1243Q26215 1146 26266 1011Q26317 877 26317 716ZM26118 716Q26118 848 26082 953Q26046 1058 25980 1130Q25914 1203 25820 1242Q25726 1281 25610 1281Q25495 1281 25401 1242Q25307 1203 25240 1130Q25174 1058 25138 953Q25102 848 25102 716Q25102 584 25138 479Q25174 375 25240 302Q25307 230 25401 191Q25495 153 25610 153Q25726 153 25820 191Q25914 230 25980 302Q26046 375 26082 479Q26118 584 26118 716ZM26776 1433L26776 163L27396 163L27396 0L26582 0L26582 1433L26776 1433ZM28167 154Q28256 154 28326 184Q28396 214 28444 268Q28493 322 28518 397Q28544 472 28544 562L28544 1433L28737 1433L28737 562Q28737 438 28697 332Q28658 226 28584 148Q28511 71 28405 27Q28299 -17 28167 -17Q28035 -17 27929 27Q27823 71 27749 148Q27675 226 27635 332Q27596 438 27596 562L27596 1433L27789 1433L27789 563Q27789 473 27814 398Q27840 323 27888 269Q27937 215 28007 184Q28078 154 28167 154ZM28924 1433L30046 1433L30046 1270L29583 1270L29583 0L29389 0L29389 1270L28924 1270L28924 1433ZM30480 1433L30480 0L30286 0L30286 1433L30480 1433ZM32195 716Q32195 555 32144 420Q32093 286 32000 189Q31907 92 31776 38Q31646 -15 31488 -15Q31330 -15 31200 38Q31070 92 30977 189Q30884 286 30833 420Q30782 555 30782 716Q30782 877 30833 1011Q30884 1146 30977 1243Q31070 1341 31200 1395Q31330 1449 31488 1449Q31646 1449 31776 1395Q31907 1341 32000 1243Q32093 1146 32144 1011Q32195 877 32195 716ZM31996 716Q31996 848 31960 953Q31924 1058 31858 1130Q31792 1203 31698 1242Q31604 1281 31488 1281Q31373 1281 31279 1242Q31185 1203 31118 1130Q31052 1058 31016 953Q30980 848 30980 716Q30980 584 31016 479Q31052 375 31118 302Q31185 230 31279 191Q31373 153 31488 153Q31604 153 31698 191Q31792 230 31858 302Q31924 375 31960 479Q31996 584 31996 716ZM32560 1433L32560 1433Q32586 1433 32598 1426Q32611 1420 32627 1400L33457 320Q33454 346 33453 370Q33452 395 33452 418L33452 1433L33622 1433L33622 0L33524 0Q33501 0 33485 8Q33470 16 33455 35L32626 1114Q32628 1089 32629 1065Q32630 1041 32630 1021L32630 0L32460 0L32460 1433L32560 1433ZM34753 1301L34706 1209Q34697 1194 34687 1186Q34677 1179 34661 1179Q34644 1179 34621 1196Q34599 1213 34564 1233Q34530 1254 34481 1271Q34433 1288 34364 1288Q34299 1288 34249 1270Q34199 1253 34165 1223Q34132 1193 34115 1152Q34098 1112 34098 1065Q34098 1005 34127 965Q34157 926 34205 898Q34254 870 34315 849Q34377 829 34441 807Q34506 785 34567 757Q34629 730 34677 688Q34726 646 34755 585Q34785 524 34785 435Q34785 341 34753 258Q34721 176 34659 115Q34598 54 34508 19Q34419 -16 34305 -16Q34166 -16 34051 34Q33937 85 33856 171L33912 263Q33920 274 33931 281Q33943 289 33957 289Q33978 289 34005 266Q34032 244 34072 217Q34113 190 34170 167Q34228 145 34311 145Q34380 145 34434 164Q34488 183 34525 217Q34563 252 34583 300Q34603 348 34603 407Q34603 472 34573 513Q34544 555 34496 583Q34448 611 34386 630Q34325 650 34260 670Q34196 691 34134 718Q34073 745 34025 788Q33977 831 33947 895Q33918 960 33918 1055Q33918 1131 33947 1202Q33977 1273 34033 1328Q34089 1383 34171 1416Q34254 1449 34361 1449Q34481 1449 34580 1411Q34679 1373 34753 1301Z" fill="#1a283f" style=""></path></g></g></g></svg>